# xmcd CD database file
#
# Track frame offsets:
#	150
#	22622
#	85740
#	129930
#	173852
#	208385
#	236050
#
# Disc length: 3333 seconds
#
# Revision: 0
# Processed by: cddbd v1.5.2PL0 Copyright (c) Steve Scherf et al.
# Submitted via: CDex 1.70beta2
#
DISCID=510d0307
DTITLE=本田竹広 - EARTHIAN AIR
DYEAR=1991
DGENRE=Jazz
TTITLE0=FLYER'S LAND
TTITLE1=EARTHIAN AIR
TTITLE2=RA-MU
TTITLE3=DARK AND MELLOW
TTITLE4=SEA
TTITLE5=SUN SHOWER
TTITLE6=COOL EYES
EXTD=YEAR: 1991
EXTT0=
EXTT1=
EXTT2=
EXTT3=
EXTT4=
EXTT5=
EXTT6=
PLAYORDER=
